<?xml version="1.0" standalone="no"?>
<!DOCTYPE svg PUBLIC "-//W3C//DTD SVG 20010904//EN"
 "http://www.w3.org/TR/2001/REC-SVG-20010904/DTD/svg10.dtd">
<svg version="1.0" xmlns="http://www.w3.org/2000/svg"
 width="416.000000pt" height="416.000000pt" viewBox="0 0 416.000000 416.000000"
 preserveAspectRatio="xMidYMid meet">
<metadata>
Created by potrace 1.14, written by Peter Selinger 2001-2017
</metadata>
<g transform="translate(0.000000,416.000000) scale(0.100000,-0.100000)"
fill="#000000" stroke="none">
<path d="M280 4141 c-126 -40 -216 -130 -259 -259 l-21 -62 2 -1683 3 -1682
30 -62 c38 -79 146 -211 206 -252 25 -17 70 -41 100 -54 l54 -22 1664 -3
c1505 -2 1670 -1 1720 14 164 47 277 165 310 322 17 83 15 3286 -3 3368 -14
66 -52 142 -94 189 -28 32 -148 129 -193 157 -80 50 -9 48 -1798 47 -1565 0
-1669 -1 -1721 -18z m3040 -1501 l0 -140 -525 0 -525 0 0 -600 0 -600 -165 0
-165 0 0 524 c0 324 -4 535 -10 551 -6 15 -22 30 -40 36 -26 10 -30 16 -30 50
l0 39 -540 0 -540 0 0 124 c0 100 3 128 16 140 14 14 143 16 1270 16 l1254 0
0 -140z m670 -2134 c-27 -173 -161 -308 -337 -336 -32 -6 -202 -10 -378 -10
l-320 0 520 520 520 520 3 -312 c1 -186 -2 -341 -8 -382z"/>
</g>
</svg>
